<svg width="105" height="119" viewBox="0 0 105 119" fill="none" xmlns="http://www.w3.org/2000/svg">
<path d="M13.125 0C5.87891 0 0 4.99707 0 11.1562V107.844C0 114.003 5.87891 119 13.125 119H39.375V100.406C39.375 94.2471 45.2539 89.25 52.5 89.25C59.7461 89.25 65.625 94.2471 65.625 100.406V119H91.875C99.1211 119 105 114.003 105 107.844V11.1562C105 4.99707 99.1211 0 91.875 0H13.125ZM17.5 55.7812C17.5 53.7359 19.4687 52.0625 21.875 52.0625H30.625C33.0313 52.0625 35 53.7359 35 55.7812V63.2188C35 65.2641 33.0313 66.9375 30.625 66.9375H21.875C19.4687 66.9375 17.5 65.2641 17.5 63.2188V55.7812ZM48.125 52.0625H56.875C59.2813 52.0625 61.25 53.7359 61.25 55.7812V63.2188C61.25 65.2641 59.2813 66.9375 56.875 66.9375H48.125C45.7187 66.9375 43.75 65.2641 43.75 63.2188V55.7812C43.75 53.7359 45.7187 52.0625 48.125 52.0625ZM70 55.7812C70 53.7359 71.9687 52.0625 74.375 52.0625H83.125C85.5313 52.0625 87.5 53.7359 87.5 55.7812V63.2188C87.5 65.2641 85.5313 66.9375 83.125 66.9375H74.375C71.9687 66.9375 70 65.2641 70 63.2188V55.7812ZM21.875 22.3125H30.625C33.0313 22.3125 35 23.9859 35 26.0312V33.4688C35 35.5141 33.0313 37.1875 30.625 37.1875H21.875C19.4687 37.1875 17.5 35.5141 17.5 33.4688V26.0312C17.5 23.9859 19.4687 22.3125 21.875 22.3125ZM43.75 26.0312C43.75 23.9859 45.7187 22.3125 48.125 22.3125H56.875C59.2813 22.3125 61.25 23.9859 61.25 26.0312V33.4688C61.25 35.5141 59.2813 37.1875 56.875 37.1875H48.125C45.7187 37.1875 43.75 35.5141 43.75 33.4688V26.0312ZM74.375 22.3125H83.125C85.5313 22.3125 87.5 23.9859 87.5 26.0312V33.4688C87.5 35.5141 85.5313 37.1875 83.125 37.1875H74.375C71.9687 37.1875 70 35.5141 70 33.4688V26.0312C70 23.9859 71.9687 22.3125 74.375 22.3125Z" fill="#D8A42E"/>
</svg>
