<svg width="384" height="512" viewBox="0 0 384 512" fill="none" xmlns="http://www.w3.org/2000/svg">
<path d="M48 0C21.5 0 0 21.5 0 48V464C0 490.5 21.5 512 48 512H144V432C144 405.5 165.5 384 192 384C218.5 384 240 405.5 240 432V512H336C362.5 512 384 490.5 384 464V48C384 21.5 362.5 0 336 0H48ZM64 240C64 231.2 71.2 224 80 224H112C120.8 224 128 231.2 128 240V272C128 280.8 120.8 288 112 288H80C71.2 288 64 280.8 64 272V240ZM176 224H208C216.8 224 224 231.2 224 240V272C224 280.8 216.8 288 208 288H176C167.2 288 160 280.8 160 272V240C160 231.2 167.2 224 176 224ZM256 240C256 231.2 263.2 224 272 224H304C312.8 224 320 231.2 320 240V272C320 280.8 312.8 288 304 288H272C263.2 288 256 280.8 256 272V240ZM80 96H112C120.8 96 128 103.2 128 112V144C128 152.8 120.8 160 112 160H80C71.2 160 64 152.8 64 144V112C64 103.2 71.2 96 80 96ZM160 112C160 103.2 167.2 96 176 96H208C216.8 96 224 103.2 224 112V144C224 152.8 216.8 160 208 160H176C167.2 160 160 152.8 160 144V112ZM272 96H304C312.8 96 320 103.2 320 112V144C320 152.8 312.8 160 304 160H272C263.2 160 256 152.8 256 144V112C256 103.2 263.2 96 272 96Z" fill="#532727"/>
</svg>
