<svg width="137" height="147" viewBox="0 0 137 147" fill="none" xmlns="http://www.w3.org/2000/svg">
<g clip-path="url(#clip0_4_11)">
<rect width="137" height="147" fill="white"/>
<path d="M107.031 27.5625C110.438 27.5625 113.704 26.1106 116.113 23.5261C118.522 20.9416 119.875 17.4363 119.875 13.7813C119.875 10.1262 118.522 6.62092 116.113 4.03643C113.704 1.45195 110.438 0 107.031 0C103.625 0 100.358 1.45195 97.9494 4.03643C95.5407 6.62092 94.1875 10.1262 94.1875 13.7813C94.1875 17.4363 95.5407 20.9416 97.9494 23.5261C100.358 26.1106 103.625 27.5625 107.031 27.5625ZM84.4744 57.5654C84.742 57.4506 84.9828 57.3357 85.2504 57.2209L80.7283 75.4523C79.2299 81.5104 80.7016 87.9703 84.6617 92.5928L103.58 114.729L109.466 140.023C110.617 144.933 115.273 147.947 119.848 146.713C124.424 145.478 127.233 140.483 126.083 135.573L119.929 109.13C119.42 106.891 118.377 104.852 116.932 103.158L103.687 87.6545L108.851 68.8488L111.42 75.4523C112.597 78.4957 114.764 80.9936 117.52 82.4865L124.665 86.3051C128.892 88.5733 134.03 86.7357 136.144 82.1994C138.258 77.6631 136.545 72.1506 132.317 69.8824L126.564 66.8104L122.471 56.2447C117.868 44.4445 107.112 36.75 95.1776 36.75C89.0768 36.75 83.0563 38.1281 77.4906 40.7695L75.35 41.7744C66.5467 45.9662 59.8037 53.9479 56.7801 63.7383L56.0844 65.9777C54.5859 70.8012 57.0209 75.9979 61.4895 77.6057C65.958 79.2135 70.8279 76.6008 72.3264 71.8061L73.0221 69.5666C74.5473 64.657 77.9188 60.6949 82.307 58.599L84.4477 57.5941L84.4744 57.5654ZM76.4471 96.3539L69.7576 114.27L53.8635 131.324C50.5188 134.913 50.5188 140.741 53.8635 144.33C57.2082 147.919 62.64 147.919 65.9848 144.33L82.4943 126.615C83.7252 125.295 84.6885 123.715 85.3307 121.993L89.2106 111.599L78.3201 98.8518C77.6512 98.0766 77.0358 97.244 76.4471 96.3826V96.3539ZM59.9375 78.6967C57.8772 77.4334 55.2816 78.1799 54.0775 80.3906L45.515 96.2965L30.9588 87.2813C26.8648 84.7547 21.6203 86.2477 19.2656 90.6404L2.14063 122.481C-0.214055 126.874 1.17735 132.501 5.2713 135.028L20.0951 144.215C24.1891 146.742 29.4336 145.249 31.7883 140.856L48.9133 109.015C49.3147 108.269 49.609 107.522 49.7963 106.719L61.5162 84.9844C62.6936 82.7736 61.9979 79.9887 59.9375 78.6967Z" fill="#D8A42E"/>
</g>
<defs>
<clipPath id="clip0_4_11">
<rect width="137" height="147" fill="white"/>
</clipPath>
</defs>
</svg>
