<svg width="34" height="28" viewBox="0 0 34 28" fill="none" xmlns="http://www.w3.org/2000/svg">
<g clip-path="url(#clip0_5_4)">
<path d="M12.75 1.75C12.75 1.28587 12.9291 0.840752 13.2479 0.512563C13.5667 0.184375 13.9991 0 14.45 0C14.9009 0 15.3333 0.184375 15.6521 0.512563C15.9709 0.840752 16.15 1.28587 16.15 1.75C16.15 2.21413 15.9709 2.65925 15.6521 2.98744C15.3333 3.31563 14.9009 3.5 14.45 3.5C13.9991 3.5 13.5667 3.31563 13.2479 2.98744C12.9291 2.65925 12.75 2.21413 12.75 1.75ZM10.2 2.625C10.6509 2.625 11.0833 2.80937 11.4021 3.13756C11.7209 3.46575 11.9 3.91087 11.9 4.375C11.9 4.83913 11.7209 5.28425 11.4021 5.61244C11.0833 5.94063 10.6509 6.125 10.2 6.125C9.74913 6.125 9.31673 5.94063 8.99792 5.61244C8.67911 5.28425 8.5 4.83913 8.5 4.375C8.5 3.91087 8.67911 3.46575 8.99792 3.13756C9.31673 2.80937 9.74913 2.625 10.2 2.625ZM8.5 7C9.44031 7 10.2 7.78203 10.2 8.75H10.625C11.3316 8.75 11.9 9.33516 11.9 10.0625V10.9375C11.9 11.0305 11.8894 11.1234 11.8734 11.2164C14.8909 12.5563 17 15.6516 17 19.25C17 24.0844 13.1963 28 8.5 28C3.80375 28 0 24.0844 0 19.25C0 15.6516 2.10906 12.5563 5.12656 11.2164C5.10531 11.1289 5.1 11.0359 5.1 10.9375V10.0625C5.1 9.33516 5.66844 8.75 6.375 8.75H6.8C6.8 7.78203 7.55969 7 8.5 7ZM8.5 24.5C9.16974 24.5 9.83293 24.3642 10.4517 24.1004C11.0704 23.8365 11.6327 23.4498 12.1062 22.9623C12.5798 22.4748 12.9555 21.896 13.2118 21.2591C13.4681 20.6221 13.6 19.9394 13.6 19.25C13.6 18.5606 13.4681 17.8779 13.2118 17.2409C12.9555 16.604 12.5798 16.0252 12.1062 15.5377C11.6327 15.0502 11.0704 14.6635 10.4517 14.3996C9.83293 14.1358 9.16974 14 8.5 14C7.83026 14 7.16708 14.1358 6.54831 14.3996C5.92955 14.6635 5.36733 15.0502 4.89376 15.5377C4.42018 16.0252 4.04451 16.604 3.78821 17.2409C3.53192 17.8779 3.4 18.5606 3.4 19.25C3.4 19.9394 3.53192 20.6221 3.78821 21.2591C4.04451 21.896 4.42018 22.4748 4.89376 22.9623C5.36733 23.4498 5.92955 23.8365 6.54831 24.1004C7.16708 24.3642 7.83026 24.5 8.5 24.5ZM18.7 19.25C18.7 17.8336 18.4291 16.4883 17.935 15.2523C18.8328 13.4531 20.315 12.0203 22.1266 11.2109C22.1053 11.1234 22.1 11.0305 22.1 10.932V10.0625C22.1 9.33516 22.6684 8.75 23.375 8.75H23.8C23.8 7.78203 24.5597 7 25.5 7C26.4403 7 27.2 7.78203 27.2 8.75H27.625C28.3316 8.75 28.9 9.33516 28.9 10.0625V10.9375C28.9 11.0305 28.8894 11.1234 28.8734 11.2164C31.8909 12.5563 34 15.6516 34 19.25C34 24.0844 30.1963 28 25.5 28C22.2063 28 19.3481 26.0695 17.935 23.2477C18.4291 22.0172 18.7 20.6664 18.7 19.25ZM30.6 19.25C30.6 17.8576 30.0627 16.5223 29.1062 15.5377C28.1498 14.5531 26.8526 14 25.5 14C24.1474 14 22.8502 14.5531 21.8938 15.5377C20.9373 16.5223 20.4 17.8576 20.4 19.25C20.4 20.6424 20.9373 21.9777 21.8938 22.9623C22.8502 23.9469 24.1474 24.5 25.5 24.5C26.8526 24.5 28.1498 23.9469 29.1062 22.9623C30.0627 21.9777 30.6 20.6424 30.6 19.25ZM19.55 0C20.0009 0 20.4333 0.184375 20.7521 0.512563C21.0709 0.840752 21.25 1.28587 21.25 1.75C21.25 2.21413 21.0709 2.65925 20.7521 2.98744C20.4333 3.31563 20.0009 3.5 19.55 3.5C19.0991 3.5 18.6667 3.31563 18.3479 2.98744C18.0291 2.65925 17.85 2.21413 17.85 1.75C17.85 1.28587 18.0291 0.840752 18.3479 0.512563C18.6667 0.184375 19.0991 0 19.55 0ZM23.8 2.625C24.2509 2.625 24.6833 2.80937 25.0021 3.13756C25.3209 3.46575 25.5 3.91087 25.5 4.375C25.5 4.83913 25.3209 5.28425 25.0021 5.61244C24.6833 5.94063 24.2509 6.125 23.8 6.125C23.3491 6.125 22.9167 5.94063 22.5979 5.61244C22.2791 5.28425 22.1 4.83913 22.1 4.375C22.1 3.91087 22.2791 3.46575 22.5979 3.13756C22.9167 2.80937 23.3491 2.625 23.8 2.625Z" fill="#D8A42E"/>
</g>
<defs>
<clipPath id="clip0_5_4">
<rect width="34" height="28" fill="white"/>
</clipPath>
</defs>
</svg>
