<svg width="34" height="28" viewBox="0 0 40 38" fill="none" xmlns="http://www.w3.org/2000/svg">
<path d="M5 0C2.23958 0 0 1.5957 0 3.5625V34.4375C0 36.4043 2.23958 38 5 38H15V32.0625C15 30.0957 17.2396 28.5 20 28.5C22.7604 28.5 25 30.0957 25 32.0625V38H35C37.7604 38 40 36.4043 40 34.4375V3.5625C40 1.5957 37.7604 0 35 0H5ZM6.66667 17.8125C6.66667 17.1594 7.41667 16.625 8.33333 16.625H11.6667C12.5833 16.625 13.3333 17.1594 13.3333 17.8125V20.1875C13.3333 20.8406 12.5833 21.375 11.6667 21.375H8.33333C7.41667 21.375 6.66667 20.8406 6.66667 20.1875V17.8125ZM18.3333 16.625H21.6667C22.5833 16.625 23.3333 17.1594 23.3333 17.8125V20.1875C23.3333 20.8406 22.5833 21.375 21.6667 21.375H18.3333C17.4167 21.375 16.6667 20.8406 16.6667 20.1875V17.8125C16.6667 17.1594 17.4167 16.625 18.3333 16.625ZM26.6667 17.8125C26.6667 17.1594 27.4167 16.625 28.3333 16.625H31.6667C32.5833 16.625 33.3333 17.1594 33.3333 17.8125V20.1875C33.3333 20.8406 32.5833 21.375 31.6667 21.375H28.3333C27.4167 21.375 26.6667 20.8406 26.6667 20.1875V17.8125ZM8.33333 7.125H11.6667C12.5833 7.125 13.3333 7.65937 13.3333 8.3125V10.6875C13.3333 11.3406 12.5833 11.875 11.6667 11.875H8.33333C7.41667 11.875 6.66667 11.3406 6.66667 10.6875V8.3125C6.66667 7.65937 7.41667 7.125 8.33333 7.125ZM16.6667 8.3125C16.6667 7.65937 17.4167 7.125 18.3333 7.125H21.6667C22.5833 7.125 23.3333 7.65937 23.3333 8.3125V10.6875C23.3333 11.3406 22.5833 11.875 21.6667 11.875H18.3333C17.4167 11.875 16.6667 11.3406 16.6667 10.6875V8.3125ZM28.3333 7.125H31.6667C32.5833 7.125 33.3333 7.65937 33.3333 8.3125V10.6875C33.3333 11.3406 32.5833 11.875 31.6667 11.875H28.3333C27.4167 11.875 26.6667 11.3406 26.6667 10.6875V8.3125C26.6667 7.65937 27.4167 7.125 28.3333 7.125Z" fill="#D8A42E"/>
</svg>
