<svg width="34" height="28" viewBox="0 0 45 34" fill="none" xmlns="http://www.w3.org/2000/svg">
<path d="M44.9882 16.9668C44.9882 18.1621 43.8162 19.0984 42.488 19.0984H39.9878L40.0425 29.7367C40.0425 29.916 40.0268 30.0953 40.0034 30.2746V31.3438C40.0034 32.8113 38.6048 34 36.8781 34H35.628C35.5421 34 35.4561 34 35.3702 33.9934C35.2608 34 35.1514 34 35.042 34H32.5028H30.6276C28.9009 34 27.5023 32.8113 27.5023 31.3438V29.75V25.5C27.5023 24.3246 26.3851 23.375 25.0021 23.375H20.0017C18.6188 23.375 17.5015 24.3246 17.5015 25.5V29.75V31.3438C17.5015 32.8113 16.1029 34 14.3762 34H12.5011H10.0087C9.89147 34 9.77427 33.9934 9.65707 33.9867C9.56331 33.9934 9.46956 34 9.3758 34H8.12569C6.39898 34 5.00043 32.8113 5.00043 31.3438V23.9062C5.00043 23.8465 5.00043 23.7801 5.00824 23.7203V19.0984H2.50021C1.09384 19.0984 0 18.1688 0 16.9668C0 16.3691 0.234395 15.8379 0.781316 15.373L20.8143 0.53125C21.3612 0.0664062 21.9862 0 22.5332 0C23.0801 0 23.7051 0.132812 24.1739 0.464844L44.1288 15.373C44.7538 15.8379 45.0663 16.3691 44.9882 16.9668Z" fill="#D8A42E"/>
</svg>
