<svg width="34" height="28" viewBox="0 0 41 34" fill="none" xmlns="http://www.w3.org/2000/svg">
<path d="M24.5974 2.125H32.7974C33.9313 2.125 34.8474 3.07461 34.8474 4.25C34.8474 5.42539 33.9313 6.375 32.7974 6.375H25.5199C25.1868 8.08828 24.0529 9.50273 22.5474 10.1801V29.75H32.7974C33.9313 29.75 34.8474 30.6996 34.8474 31.875C34.8474 33.0504 33.9313 34 32.7974 34H20.4974H8.19744C7.06354 34 6.14745 33.0504 6.14745 31.875C6.14745 30.6996 7.06354 29.75 8.19744 29.75H18.4474V10.1801C16.942 9.49609 15.8081 8.08164 15.4749 6.375H8.19744C7.06354 6.375 6.14745 5.42539 6.14745 4.25C6.14745 3.07461 7.06354 2.125 8.19744 2.125H16.3974C17.3328 0.836719 18.819 0 20.4974 0C22.1759 0 23.6621 0.836719 24.5974 2.125ZM28.1593 21.25H37.4356L32.7974 13.0023L28.1593 21.25ZM32.7974 27.625C28.7679 27.625 25.4174 25.3672 24.7256 22.3855C24.559 21.6551 24.7896 20.9047 25.1548 20.2539L31.2535 9.41641C31.5739 8.84531 32.1632 8.5 32.7974 8.5C33.4317 8.5 34.021 8.85195 34.3414 9.41641L40.4401 20.2539C40.8053 20.9047 41.0359 21.6551 40.8693 22.3855C40.1774 25.3672 36.827 27.625 32.7974 27.625ZM8.12057 13.0023L3.48245 21.25H12.7651L8.12057 13.0023ZM0.0551015 22.3855C-0.111461 21.6551 0.119164 20.9047 0.48432 20.2539L6.58307 9.41641C6.90338 8.84531 7.49276 8.5 8.12698 8.5C8.76119 8.5 9.35057 8.85195 9.67088 9.41641L15.7696 20.2539C16.1348 20.9047 16.3654 21.6551 16.1989 22.3855C15.5006 25.3672 12.1501 27.625 8.12057 27.625C4.09104 27.625 0.746976 25.3672 0.0551015 22.3855Z" fill="#D8A42E"/>
</svg>
