<svg width="34" height="28" viewBox="0 0 44 42" fill="none" xmlns="http://www.w3.org/2000/svg">
<g clip-path="url(#clip0_9_25)">
<path d="M0 3.9375C0 1.76367 1.64236 0 3.66667 0H25.6667C27.691 0 29.3333 1.76367 29.3333 3.9375V16.9805L26.0944 18.375H23.2222H20.7778C20.1056 18.375 19.5556 18.9656 19.5556 19.6875V22.3125V24.2977V24.9375C19.5556 25.0113 19.5632 25.077 19.5708 25.1508C19.7465 29.9168 21.4118 37.0289 27.1104 41.6801C26.6674 41.8852 26.1785 42 25.6667 42H18.3333V35.4375C18.3333 33.2637 16.691 31.5 14.6667 31.5C12.6424 31.5 11 33.2637 11 35.4375V42H3.66667C1.64236 42 0 40.2363 0 38.0625V3.9375ZM6.11111 18.375C5.43889 18.375 4.88889 18.9656 4.88889 19.6875V22.3125C4.88889 23.0344 5.43889 23.625 6.11111 23.625H8.55556C9.22778 23.625 9.77778 23.0344 9.77778 22.3125V19.6875C9.77778 18.9656 9.22778 18.375 8.55556 18.375H6.11111ZM12.2222 19.6875V22.3125C12.2222 23.0344 12.7722 23.625 13.4444 23.625H15.8889C16.5611 23.625 17.1111 23.0344 17.1111 22.3125V19.6875C17.1111 18.9656 16.5611 18.375 15.8889 18.375H13.4444C12.7722 18.375 12.2222 18.9656 12.2222 19.6875ZM4.88889 9.1875V11.8125C4.88889 12.5344 5.43889 13.125 6.11111 13.125H8.55556C9.22778 13.125 9.77778 12.5344 9.77778 11.8125V9.1875C9.77778 8.46562 9.22778 7.875 8.55556 7.875H6.11111C5.43889 7.875 4.88889 8.46562 4.88889 9.1875ZM13.4444 7.875C12.7722 7.875 12.2222 8.46562 12.2222 9.1875V11.8125C12.2222 12.5344 12.7722 13.125 13.4444 13.125H15.8889C16.5611 13.125 17.1111 12.5344 17.1111 11.8125V9.1875C17.1111 8.46562 16.5611 7.875 15.8889 7.875H13.4444ZM19.5556 9.1875V11.8125C19.5556 12.5344 20.1056 13.125 20.7778 13.125H23.2222C23.8944 13.125 24.4444 12.5344 24.4444 11.8125V9.1875C24.4444 8.46562 23.8944 7.875 23.2222 7.875H20.7778C20.1056 7.875 19.5556 8.46562 19.5556 9.1875ZM32.3201 18.5145C32.7556 18.3258 33.2444 18.3258 33.6799 18.5145L42.8465 22.452C43.5417 22.7555 44 23.4773 44 24.2812C44 29.4738 42.0215 38.1281 33.7028 41.8523C33.2521 42.0574 32.7403 42.0574 32.2896 41.8523C23.9785 38.1281 22 29.4738 22 24.2812C22 23.4773 22.4583 22.7555 23.1535 22.452L32.3201 18.5145ZM40.2875 25.5938L33 22.4602V37.8738C38.2097 35.1668 39.9896 29.7527 40.2875 25.5938Z" fill="#D8A42E"/>
</g>
<defs>
<clipPath id="clip0_9_25">
<rect width="44" height="42" fill="white"/>
</clipPath>
</defs>
</svg>
