<svg width="34" height="28" viewBox="0 0 42 37" fill="none" xmlns="http://www.w3.org/2000/svg">
<g clip-path="url(#clip0_9_19)">
<path d="M18.9 3.46875C18.9 1.55371 20.3109 0 22.05 0H28.35C30.0891 0 31.5 1.55371 31.5 3.46875V13.875H34.125V8.67188C34.125 7.71074 34.8272 6.9375 35.7 6.9375C36.5728 6.9375 37.275 7.71074 37.275 8.67188V13.875H38.85C40.5891 13.875 42 15.4287 42 17.3438V33.5312C42 35.4463 40.5891 37 38.85 37H28.35H22.05C20.3109 37 18.9 35.4463 18.9 33.5312V3.46875ZM23.1 5.78125V8.09375C23.1 8.72969 23.5725 9.25 24.15 9.25H26.25C26.8275 9.25 27.3 8.72969 27.3 8.09375V5.78125C27.3 5.14531 26.8275 4.625 26.25 4.625H24.15C23.5725 4.625 23.1 5.14531 23.1 5.78125ZM24.15 11.5625C23.5725 11.5625 23.1 12.0828 23.1 12.7188V15.0312C23.1 15.6672 23.5725 16.1875 24.15 16.1875H26.25C26.8275 16.1875 27.3 15.6672 27.3 15.0312V12.7188C27.3 12.0828 26.8275 11.5625 26.25 11.5625H24.15ZM23.1 19.6562V21.9688C23.1 22.6047 23.5725 23.125 24.15 23.125H26.25C26.8275 23.125 27.3 22.6047 27.3 21.9688V19.6562C27.3 19.0203 26.8275 18.5 26.25 18.5H24.15C23.5725 18.5 23.1 19.0203 23.1 19.6562ZM34.65 18.5C34.0725 18.5 33.6 19.0203 33.6 19.6562V21.9688C33.6 22.6047 34.0725 23.125 34.65 23.125H36.75C37.3275 23.125 37.8 22.6047 37.8 21.9688V19.6562C37.8 19.0203 37.3275 18.5 36.75 18.5H34.65ZM33.6 26.5938V28.9062C33.6 29.5422 34.0725 30.0625 34.65 30.0625H36.75C37.3275 30.0625 37.8 29.5422 37.8 28.9062V26.5938C37.8 25.9578 37.3275 25.4375 36.75 25.4375H34.65C34.0725 25.4375 33.6 25.9578 33.6 26.5938ZM14.7 11.5625C14.7 11.9961 14.6344 12.3574 14.5687 12.7188C15.8812 13.7305 16.8 15.4648 16.8 17.3438C16.8 20.5957 14.4375 23.125 11.55 23.125H10.5V34.6875C10.5 35.9883 9.51562 37 8.4 37C7.21875 37 6.3 35.9883 6.3 34.6875V23.125H5.25C2.29687 23.125 0 20.5957 0 17.3438C0 15.4648 0.853125 13.7305 2.16562 12.7188C2.1 12.3574 2.1 11.9961 2.1 11.5625C2.1 7.73242 4.85625 4.625 8.4 4.625C11.8781 4.625 14.7 7.73242 14.7 11.5625Z" fill="#D8A42E"/>
</g>
<defs>
<clipPath id="clip0_9_19">
<rect width="42" height="37" fill="white"/>
</clipPath>
</defs>
</svg>
