<svg width="34" height="28" viewBox="0 0 42 35" fill="none" xmlns="http://www.w3.org/2000/svg">
<path d="M22.0205 0.276828L40.9212 11.2133C41.9319 11.8011 42.2994 13.134 41.735 14.1866C41.1706 15.2392 39.8909 15.622 38.8802 15.0342L21.0033 4.69241L3.1198 15.041C2.10914 15.6288 0.829401 15.2461 0.265005 14.1934C-0.299391 13.1408 0.0681227 11.8079 1.07879 11.2201L19.9861 0.276828C20.6226 -0.0922762 21.3905 -0.0922762 22.0271 0.276828H22.0205ZM21.0033 10.9398C21.6995 10.9398 22.3672 11.2279 22.8595 11.7407C23.3518 12.2534 23.6284 12.9488 23.6284 13.674C23.6284 14.3991 23.3518 15.0945 22.8595 15.6073C22.3672 16.12 21.6995 16.4081 21.0033 16.4081C20.3071 16.4081 19.6394 16.12 19.1471 15.6073C18.6548 15.0945 18.3782 14.3991 18.3782 13.674C18.3782 12.9488 18.6548 12.2534 19.1471 11.7407C19.6394 11.2279 20.3071 10.9398 21.0033 10.9398ZM9.45285 17.5017C10.1491 17.5017 10.8168 17.7898 11.3091 18.3025C11.8014 18.8153 12.0779 19.5107 12.0779 20.2358C12.0779 20.9609 11.8014 21.6564 11.3091 22.1691C10.8168 22.6819 10.1491 22.9699 9.45285 22.9699C8.75663 22.9699 8.08893 22.6819 7.59662 22.1691C7.10432 21.6564 6.82775 20.9609 6.82775 20.2358C6.82775 19.5107 7.10432 18.8153 7.59662 18.3025C8.08893 17.7898 8.75663 17.5017 9.45285 17.5017ZM29.9286 20.2358C29.9286 19.5107 30.2052 18.8153 30.6975 18.3025C31.1898 17.7898 31.8575 17.5017 32.5537 17.5017C33.2499 17.5017 33.9176 17.7898 34.4099 18.3025C34.9022 18.8153 35.1788 19.5107 35.1788 20.2358C35.1788 20.9609 34.9022 21.6564 34.4099 22.1691C33.9176 22.6819 33.2499 22.9699 32.5537 22.9699C31.8575 22.9699 31.1898 22.6819 30.6975 22.1691C30.2052 21.6564 29.9286 20.9609 29.9286 20.2358ZM14.8934 33.5919L13.128 30.1811V32.8127C13.128 34.0226 12.1895 35 11.0279 35H7.87779C6.71618 35 5.77771 34.0226 5.77771 32.8127V30.1811L4.01233 33.5919C3.59888 34.3917 2.64728 34.6856 1.87944 34.2618C1.1116 33.838 0.829401 32.8401 1.23629 32.0403L3.72357 27.2351C4.72767 25.2871 6.68337 24.0704 8.8097 24.0704H10.0894C11.1592 24.0704 12.183 24.378 13.0689 24.9316L15.274 20.6733C16.2781 18.7252 18.2338 17.5085 20.3601 17.5085H21.6399C23.7662 17.5085 25.7153 18.7252 26.726 20.6733L28.9311 24.9316C29.817 24.378 30.8408 24.0704 31.9106 24.0704H33.1903C35.3166 24.0704 37.2658 25.2871 38.2764 27.2351L40.7637 32.0403C41.1772 32.8401 40.8884 33.8312 40.1206 34.2618C39.3527 34.6924 38.4011 34.3917 37.9877 33.5919L36.2289 30.1811V32.8127C36.2289 34.0226 35.2904 35 34.1288 35H30.9787C29.8171 35 28.8786 34.0226 28.8786 32.8127V30.1811L27.1132 33.5919C26.6997 34.3917 25.7481 34.6856 24.9803 34.2618C24.2125 33.838 23.9303 32.8401 24.3372 32.0403L26.7194 27.4265C26.6079 27.3103 26.5094 27.1805 26.4372 27.0301L24.6784 23.6193V27.3445C24.6784 28.5543 23.7399 29.5318 22.5783 29.5318H19.4282C18.2666 29.5318 17.3281 28.5543 17.3281 27.3445V23.6193L15.5628 27.0301C15.484 27.1805 15.3921 27.3103 15.2806 27.4265L17.6628 32.0403C18.0763 32.8401 17.7875 33.8312 17.0197 34.2618C16.2519 34.6924 15.3003 34.3917 14.8868 33.5919H14.8934Z" fill="#D8A42E"/>
</svg>
