<svg width="34" height="28" viewBox="0 0 41 31" fill="none" xmlns="http://www.w3.org/2000/svg">
<g clip-path="url(#clip0_4_11)">
<path d="M32.0312 5.8125C33.0507 5.8125 34.0283 5.50631 34.7492 4.96128C35.47 4.41625 35.875 3.67704 35.875 2.90625C35.875 2.13546 35.47 1.39625 34.7492 0.851221C34.0283 0.306193 33.0507 0 32.0312 0C31.0118 0 30.0341 0.306193 29.3133 0.851221C28.5925 1.39625 28.1875 2.13546 28.1875 2.90625C28.1875 3.67704 28.5925 4.41625 29.3133 4.96128C30.0341 5.50631 31.0118 5.8125 32.0312 5.8125ZM25.2807 12.1396C25.3607 12.1154 25.4328 12.0912 25.5129 12.067L24.1596 15.9117C23.7111 17.1893 24.1516 18.5516 25.3367 19.5264L30.9982 24.1945L32.76 29.5287C33.1043 30.5641 34.4977 31.1998 35.867 30.9395C37.2363 30.6791 38.0771 29.6256 37.7328 28.5902L35.891 23.0139C35.7389 22.5416 35.4266 22.1117 34.9941 21.7545L31.0303 18.485L32.5758 14.5191L33.3445 15.9117C33.6969 16.5535 34.3455 17.0803 35.1703 17.3951L37.3084 18.2004C38.5736 18.6787 40.1111 18.2912 40.7437 17.3346C41.3764 16.3779 40.8639 15.2154 39.5986 14.7371L37.8769 14.0893L36.6518 11.8611C35.2744 9.37266 32.0553 7.75 28.4838 7.75C26.658 7.75 24.8562 8.04063 23.1906 8.59766L22.55 8.80957C19.9154 9.69356 17.8975 11.3768 16.9926 13.4414L16.7844 13.9137C16.3359 14.9309 17.0646 16.0268 18.402 16.3658C19.7393 16.7049 21.1967 16.1539 21.6451 15.1428L21.8533 14.6705C22.3098 13.6352 23.3187 12.7996 24.632 12.3576L25.2727 12.1457L25.2807 12.1396ZM22.8783 20.3195L20.8764 24.0977L16.1197 27.6941C15.1187 28.451 15.1187 29.6801 16.1197 30.4369C17.1207 31.1938 18.7463 31.1938 19.7473 30.4369L24.6881 26.7012C25.0564 26.4227 25.3447 26.0897 25.5369 25.7264L26.698 23.5346L23.4389 20.8463C23.2387 20.6828 23.0545 20.5072 22.8783 20.3256V20.3195ZM17.9375 16.5959C17.3209 16.3295 16.5441 16.4869 16.1838 16.9531L13.6213 20.3074L9.26504 18.4063C8.03984 17.8734 6.47031 18.1883 5.76562 19.1146L0.640623 25.8293C-0.0640644 26.7557 0.352342 27.9424 1.57754 28.4752L6.01386 30.4127C7.23906 30.9455 8.80859 30.6307 9.51328 29.7043L14.6383 22.9897C14.7584 22.8322 14.8465 22.6748 14.9025 22.5053L18.41 17.9219C18.7623 17.4557 18.5541 16.8684 17.9375 16.5959Z" fill="#D8A42E"/>
</g>
<defs>
<clipPath id="clip0_4_11">
<rect width="41" height="31" fill="white"/>
</clipPath>
</defs>
</svg>
