<svg width="34" height="28" viewBox="0 0 44 35" fill="none" xmlns="http://www.w3.org/2000/svg">
<path d="M7.33333 0C3.28854 0 0 1.96191 0 4.375V30.625C0 33.0381 3.28854 35 7.33333 35H36.6667C40.7115 35 44 33.0381 44 30.625V10.9375H29.3333C27.3052 10.9375 25.6667 9.95996 25.6667 8.75V0H7.33333ZM29.3333 0V8.75H44L29.3333 0ZM9.16667 4.375H16.5C17.5083 4.375 18.3333 4.86719 18.3333 5.46875C18.3333 6.07031 17.5083 6.5625 16.5 6.5625H9.16667C8.15833 6.5625 7.33333 6.07031 7.33333 5.46875C7.33333 4.86719 8.15833 4.375 9.16667 4.375ZM9.16667 8.75H16.5C17.5083 8.75 18.3333 9.24219 18.3333 9.84375C18.3333 10.4453 17.5083 10.9375 16.5 10.9375H9.16667C8.15833 10.9375 7.33333 10.4453 7.33333 9.84375C7.33333 9.24219 8.15833 8.75 9.16667 8.75ZM11 15.3125H33C35.0281 15.3125 36.6667 16.29 36.6667 17.5V21.875C36.6667 23.085 35.0281 24.0625 33 24.0625H11C8.97188 24.0625 7.33333 23.085 7.33333 21.875V17.5C7.33333 16.29 8.97188 15.3125 11 15.3125ZM11 17.5V21.875H33V17.5H11ZM27.5 28.4375H34.8333C35.8417 28.4375 36.6667 28.9297 36.6667 29.5312C36.6667 30.1328 35.8417 30.625 34.8333 30.625H27.5C26.4917 30.625 25.6667 30.1328 25.6667 29.5312C25.6667 28.9297 26.4917 28.4375 27.5 28.4375Z" fill="#D8A42E"/>
</svg>
